{
	"asset":{
		"generator":"Khronos glTF Blender I/O v4.2.70",
		"version":"2.0"
	},
	"scene":0,
	"scenes":[
		{
			"name":"Scene",
			"nodes":[
				0
			]
		}
	],
	"nodes":[
		{
			"mesh":0,
			"name":"dice",
			"translation":[
				0.0016541918739676476,
				-0.00017964839935302734,
				-0.004999034106731415
			]
		}
	],
	"materials":[
		{
			"doubleSided":true,
			"name":"blue",
			"pbrMetallicRoughness":{
				"baseColorFactor":[
					0.012753961607813835,
					0.03721186891198158,
					0.8002121448516846,
					1
				],
				"metallicFactor":0,
				"roughnessFactor":0.5
			}
		},
		{
			"doubleSided":true,
			"name":"white.001",
			"pbrMetallicRoughness":{
				"baseColorFactor":[
					0.800000011920929,
					0.800000011920929,
					0.800000011920929,
					1
				],
				"metallicFactor":0,
				"roughnessFactor":0.5
			}
		},
		{
			"doubleSided":true,
			"name":"\u6750\u8d28.001",
			"pbrMetallicRoughness":{
				"baseColorFactor":[
					0.8002041578292847,
					0.03509896993637085,
					0.06610729545354843,
					1
				],
				"metallicFactor":0,
				"roughnessFactor":0.5
			}
		}
	],
	"meshes":[
		{
			"name":"dice",
			"primitives":[
				{
					"attributes":{
						"POSITION":0,
						"NORMAL":1,
						"TEXCOORD_0":2
					},
					"indices":3,
					"material":0
				},
				{
					"attributes":{
						"POSITION":4,
						"NORMAL":5,
						"TEXCOORD_0":6
					},
					"indices":7,
					"material":1
				},
				{
					"attributes":{
						"POSITION":8,
						"NORMAL":9,
						"TEXCOORD_0":10
					},
					"indices":11,
					"material":2
				}
			]
		}
	],
	"accessors":[
		{
			"bufferView":0,
			"componentType":5126,
			"count":5638,
			"max":[
				0.9650127291679382,
				0.5682353973388672,
				0.9716657400131226
			],
			"min":[
				-0.5697097778320312,
				-0.966486930847168,
				-0.9616677165031433
			],
			"type":"VEC3"
		},
		{
			"bufferView":1,
			"componentType":5126,
			"count":5638,
			"type":"VEC3"
		},
		{
			"bufferView":2,
			"componentType":5126,
			"count":5638,
			"type":"VEC2"
		},
		{
			"bufferView":3,
			"componentType":5123,
			"count":30720,
			"type":"SCALAR"
		},
		{
			"bufferView":4,
			"componentType":5126,
			"count":14765,
			"max":[
				0.9983460903167725,
				1.0001802444458008,
				1.0049993991851807
			],
			"min":[
				-1.0016543865203857,
				-0.9998202919960022,
				-0.9950011372566223
			],
			"type":"VEC3"
		},
		{
			"bufferView":5,
			"componentType":5126,
			"count":14765,
			"type":"VEC3"
		},
		{
			"bufferView":6,
			"componentType":5126,
			"count":14765,
			"type":"VEC2"
		},
		{
			"bufferView":7,
			"componentType":5123,
			"count":81792,
			"type":"SCALAR"
		},
		{
			"bufferView":8,
			"componentType":5126,
			"count":1754,
			"max":[
				0.4141918420791626,
				0.9668468236923218,
				0.5730546116828918
			],
			"min":[
				-0.9683210253715515,
				-0.567875862121582,
				-0.5630566477775574
			],
			"type":"VEC3"
		},
		{
			"bufferView":9,
			"componentType":5126,
			"count":1754,
			"type":"VEC3"
		},
		{
			"bufferView":10,
			"componentType":5126,
			"count":1754,
			"type":"VEC2"
		},
		{
			"bufferView":11,
			"componentType":5123,
			"count":9600,
			"type":"SCALAR"
		}
	],
	"bufferViews":[
		{
			"buffer":0,
			"byteLength":67656,
			"byteOffset":0,
			"target":34962
		},
		{
			"buffer":0,
			"byteLength":67656,
			"byteOffset":67656,
			"target":34962
		},
		{
			"buffer":0,
			"byteLength":45104,
			"byteOffset":135312,
			"target":34962
		},
		{
			"buffer":0,
			"byteLength":61440,
			"byteOffset":180416,
			"target":34963
		},
		{
			"buffer":0,
			"byteLength":177180,
			"byteOffset":241856,
			"target":34962
		},
		{
			"buffer":0,
			"byteLength":177180,
			"byteOffset":419036,
			"target":34962
		},
		{
			"buffer":0,
			"byteLength":118120,
			"byteOffset":596216,
			"target":34962
		},
		{
			"buffer":0,
			"byteLength":163584,
			"byteOffset":714336,
			"target":34963
		},
		{
			"buffer":0,
			"byteLength":21048,
			"byteOffset":877920,
			"target":34962
		},
		{
			"buffer":0,
			"byteLength":21048,
			"byteOffset":898968,
			"target":34962
		},
		{
			"buffer":0,
			"byteLength":14032,
			"byteOffset":920016,
			"target":34962
		},
		{
			"buffer":0,
			"byteLength":19200,
			"byteOffset":934048,
			"target":34963
		}
	],
	"buffers":[
		{
			"byteLength":953248,
			"uri":"dice.bin"
		}
	]
}
