<svg xmlns="http://www.w3.org/2000/svg" version="1.1" xmlns:xlink="http://www.w3.org/1999/xlink" xmlns:svgjs="http://svgjs.dev/svgjs" width="1000" height="1000"><g clip-path="url(#SvgjsClipPath1107)"><rect width="1000" height="1000" fill="#ffffff"></rect><g transform="matrix(25,0,0,25,100,100)"><svg xmlns="http://www.w3.org/2000/svg" version="1.1" xmlns:xlink="http://www.w3.org/1999/xlink" xmlns:svgjs="http://svgjs.dev/svgjs" width="32" height="32"><svg xmlns="http://www.w3.org/2000/svg" width="32" height="32" viewBox="0 0 24 24"><g fill="none" stroke="currentColor" stroke-linecap="round" stroke-linejoin="round" stroke-width="2"><path d="m16 12l4-4a2.828 2.828 0 1 0-4-4l-4 4m-2 2l-7 7v4h4l7-7m.5-8.5l4 4"></path><path d="M12 8L7 3M5 5L3 7l5 5M7 8L5.5 9.5M16 12l5 5m-2 2l-2 2l-5-5m4 1l-1.5 1.5M3 3l18 18"></path></g></svg></svg></g></g><defs><clipPath id="SvgjsClipPath1107"><rect width="1000" height="1000" x="0" y="0" rx="300" ry="300"></rect></clipPath></defs></svg>