<svg width="16" height="9" viewBox="0 0 16 9" fill="none" xmlns="http://www.w3.org/2000/svg">
<path d="M0.860795 9V0.272727H4.13352C4.80398 0.272727 5.36648 0.397727 5.82102 0.647727C6.27841 0.897727 6.62358 1.24148 6.85653 1.67898C7.09233 2.11364 7.21023 2.60795 7.21023 3.16193C7.21023 3.72159 7.09233 4.21875 6.85653 4.65341C6.62074 5.08807 6.27273 5.4304 5.8125 5.6804C5.35227 5.92756 4.78551 6.05114 4.11222 6.05114H1.94318V4.75142H3.89915C4.29119 4.75142 4.61222 4.68324 4.86222 4.54688C5.11222 4.41051 5.29688 4.22301 5.41619 3.98438C5.53835 3.74574 5.59943 3.47159 5.59943 3.16193C5.59943 2.85227 5.53835 2.57955 5.41619 2.34375C5.29688 2.10795 5.1108 1.92472 4.85795 1.79403C4.60795 1.66051 4.28551 1.59375 3.89062 1.59375H2.44176V9H0.860795ZM7.98686 0.272727H9.77237L11.9073 4.13352H11.9925L14.1275 0.272727H15.913L12.7383 5.74432V9H11.1616V5.74432L7.98686 0.272727Z" fill="black"/>
</svg>
